<svg xmlns="http://www.w3.org/2000/svg" version="1.1" xmlns:xlink="http://www.w3.org/1999/xlink" xmlns:svgjs="http://svgjs.dev/svgjs" width="2000" height="515" viewBox="0 0 2000 515">
  <g transform="matrix(1,0,0,1,-1.2121212121213603,-0.576253334179853)">
    <svg viewBox="0 0 396 102" data-background-color="#ffffff" preserveAspectRatio="xMidYMid meet" height="515" width="2000" xmlns="http://www.w3.org/2000/svg" xmlns:xlink="http://www.w3.org/1999/xlink">
      <g id="tight-bounds" transform="matrix(1,0,0,1,0.24000000000003752,0.11413172832300233)">
        <svg viewBox="0 0 395.5199999999999 101.77173654335397" height="101.77173654335397" width="395.5199999999999">
          <g>
            <svg viewBox="0 0 566.0520297201216 145.65154237082066" height="101.77173654335397" width="395.5199999999999">
              <g transform="matrix(1,0,0,1,0,20.129844133738608)">
                <svg viewBox="0 0 395.52 105.39185410334345" height="105.39185410334345" width="395.52">
                  <g id="textblocktransform">
                    <svg viewBox="0 0 395.52 105.39185410334345" height="105.39185410334345" width="395.52" id="textblock">
                      <g>
                        <svg viewBox="0 0 395.52 105.39185410334345" height="105.39185410334345" width="395.52">
                          <g transform="matrix(1,0,0,1,0,0)">
                            <svg width="395.52" viewBox="5.349999904632568 -38.599998474121094 148.0399932861328 39.44999694824219" height="105.39185410334345" data-palette-color="#202046">
                              <path d="M28.3-33.55L10.2-33.55 10.2-20.55 25.8-20.55 25.8-16.2 10.2-16.2 10.2 0 5.35 0 5.35-37.9 28.3-37.9 28.3-33.55ZM40.85-4.35L56.7-4.35 56.7 0 36 0 36-37.9 40.85-37.9 40.85-4.35ZM79.6 0.85Q73.75 0.85 69.67-1.73 65.6-4.3 63.55-8.78 61.5-13.25 61.5-18.9L61.5-18.9Q61.5-24.45 63.55-28.9 65.6-33.35 69.67-35.98 73.75-38.6 79.6-38.6L79.6-38.6Q85.4-38.6 89.45-35.98 93.5-33.35 95.57-28.88 97.65-24.4 97.65-18.9L97.65-18.9Q97.65-13.25 95.59-8.78 93.55-4.3 89.47-1.73 85.4 0.85 79.6 0.85L79.6 0.85ZM79.6-3.4Q83.7-3.4 86.65-5.45 89.6-7.5 91.12-11.05 92.65-14.6 92.65-19.05L92.65-19.05Q92.65-23.35 91.09-26.83 89.55-30.3 86.6-32.33 83.65-34.35 79.6-34.35L79.6-34.35Q75.4-34.35 72.45-32.3 69.5-30.25 68-26.75 66.5-23.25 66.5-18.9L66.5-18.9Q66.5-14.45 68-10.95 69.5-7.45 72.45-5.43 75.4-3.4 79.6-3.4L79.6-3.4ZM148.49-37.9L153.39-37.9 142.49 0.45 137.09 0.45 127.94-30.7 118.84 0.45 113.44 0.45 102.49-37.9 107.39-37.9 116.19-6.1 125.19-37.9 130.69-37.9 139.74-6.05 148.49-37.9Z" opacity="1" transform="matrix(1,0,0,1,0,0)" fill="#202046" class="wordmark-text-0" data-fill-palette-color="primary" id="text-0"></path>
                            </svg>
                          </g>
                        </svg>
                      </g>
                    </svg>
                  </g>
                </svg>
              </g>
              <g transform="matrix(1,0,0,1,420.4004873493009,0)">
                <svg viewBox="0 0 145.65154237082066 145.65154237082066" height="145.65154237082066" width="145.65154237082066">
                  <g data-palette-color="#fe633d">
                    <rect width="39.81142158135765" height="145.65154237082066" fill="#fe633d" stroke="transparent" data-fill-palette-color="accent" x="0" fill-opacity="1"></rect>
                    <rect width="39.81142158135765" height="145.65154237082066" fill="#fe633d" stroke="transparent" data-fill-palette-color="accent" x="48.55051412360689" fill-opacity="0.75"></rect>
                    <rect width="39.81142158135765" height="145.65154237082066" fill="#fe633d" stroke="transparent" data-fill-palette-color="accent" x="97.10102824721378" fill-opacity="0.5"></rect>
                  </g>
                </svg>
              </g>
            </svg>
          </g>
          <defs></defs>
        </svg>
        <rect width="395.5199999999999" height="101.77173654335397" fill="none" stroke="none" visibility="hidden"></rect>
      </g>
    </svg>
  </g>
</svg>